Coordinates
version=1
nRows=8
nColumns=46
inDegrees=yes

Units are S.I. units (second, meters, Newtons, ...)
Angles are in degrees.

endheader
time	pelvis_tilt	pelvis_list	pelvis_rotation	pelvis_tx	pelvis_ty	pelvis_tz	bb_angle	bb_tx	bb_ty	bb_tz	hip_flexion_r	hip_adduction_r	hip_rotation_r	knee_angle_r	knee_angle_r_beta	ankle_angle_r	subtalar_angle_r	mtp_angle_r	crank_angle_r	hip_flexion_l	hip_adduction_l	hip_rotation_l	knee_angle_l	knee_angle_l_beta	ankle_angle_l	subtalar_angle_l	mtp_angle_l	crank_angle_l	lumbar_extension	lumbar_bending	lumbar_rotation	arm_flex_r	arm_add_r	arm_rot_r	elbow_flex_r	pro_sup_r	wrist_flex_r	wrist_dev_r	arm_flex_l	arm_add_l	arm_rot_l	elbow_flex_l	pro_sup_l	wrist_flex_l	wrist_dev_l
      5.00500000	    -20.62663571	     -5.38773463	     -1.09309728	      0.08054987	      0.98951154	     -0.23109079	      0.00000000	      0.50000000	      0.00000000	      0.25000000	     89.84856419	     -2.32083594	      4.53193975	    112.77884577	      1.96836219	    -24.77755128	     -8.98812864	      0.00000000	      0.00000000	     53.53312467	     -7.59508382	      0.63461229	     33.97945074	      0.59305329	      3.30586510	     -2.80038308	      0.00000000	      0.00000000	    -47.29863800	     10.62725977	      3.04538461	     89.49586833	     -1.77089835	     30.94690578	     38.09038766	     38.91968339	      0.00000000	      0.00000000	     89.19195158	    -18.70632491	     47.90890069	     43.69260840	     36.50901203	      0.00000000	      0.00000000
      5.01000000	    -20.39302504	     -5.57083860	     -2.06748236	      0.08116150	      0.99008482	     -0.23113445	      0.00000000	      0.50000000	      0.00000000	      0.25000000	     91.48825079	     -1.48305915	      4.65539595	    113.63203060	      1.98325307	    -25.90174966	     -8.73746241	      0.00000000	      0.00000000	     51.53920625	     -8.38727098	      0.11928877	     32.32461551	      0.56417097	      2.57630357	     -2.96562861	      0.00000000	      0.00000000	    -47.66342020	     10.52735563	      3.86345016	     89.51418997	     -1.67898478	     31.29902646	     38.43307830	     38.81925410	      0.00000000	      0.00000000	     89.13976115	    -18.97550443	     48.14738653	     43.46961376	     36.54038862	      0.00000000	      0.00000000
      5.01500000	    -20.16212383	     -5.69426532	     -3.04913246	      0.08172529	      0.99079894	     -0.23109224	      0.00000000	      0.50000000	      0.00000000	      0.25000000	     93.11488940	     -0.71854690	      4.69008423	    114.35783070	      1.99592067	    -27.09546385	     -8.57645465	      0.00000000	      0.00000000	     49.62606227	     -9.13899513	     -0.52164216	     30.86872384	      0.53876087	      1.83993137	     -3.17086874	      0.00000000	      0.00000000	    -48.03493473	     10.33658346	      4.67622173	     89.52797369	     -1.71686753	     31.61912137	     38.76732166	     38.71928636	      0.00000000	      0.00000000	     89.09878115	    -19.20802308	     48.52505113	     43.21248802	     36.58101410	      0.00000000	      0.00000000
      5.02000000	    -20.12636528	     -5.98392700	     -3.96201345	      0.08233741	      0.99126504	     -0.23134766	      0.00000000	      0.50000000	      0.00000000	      0.25000000	     94.85988112	     -0.09173165	      4.50482553	    115.03693105	      2.00777321	    -27.54620272	     -8.46205469	      0.00000000	      0.00000000	     48.08123478	     -9.94524060	     -0.92747789	     29.72910945	      0.51887084	      1.47169750	     -3.18744007	      0.00000000	      0.00000000	    -48.24729151	     10.41027985	      5.54101371	     89.54281990	     -1.60561661	     31.73539049	     38.94296354	     38.70024736	      0.00000000	      0.00000000	     88.98753140	    -19.49165137	     48.62523456	     43.00274813	     36.57366597	      0.00000000	      0.00000000
      5.02500000	    -19.78474664	     -5.96961500	     -5.01861149	      0.08304767	      0.99270598	     -0.23072733	      0.00000000	      0.50000000	      0.00000000	      0.25000000	     96.26106318	      0.76858064	      4.47897299	    115.57132606	      2.01710016	    -28.47287630	     -8.54647261	      0.00000000	      0.00000000	     46.13895334	    -10.73685686	     -2.05777250	     28.60331248	      0.49922198	      0.62551123	     -3.01135338	      0.00000000	      0.00000000	    -48.76513318	      9.87871295	      6.46709646	     89.54451479	     -2.16675662	     32.48330972	     39.76121790	     38.15619970	      0.00000000	      0.00000000	     89.07762210	    -19.35768114	     49.80014137	     42.21364568	     36.73475260	      0.00000000	      0.00000000
      5.03000000	    -19.74797591	     -6.18731674	     -5.99625381	      0.08376275	      0.99387090	     -0.23045773	      0.00000000	      0.50000000	      0.00000000	      0.25000000	     97.82138381	      1.42851421	      4.16011424	    116.00026991	      2.02458664	    -28.63919968	     -8.34602690	      0.00000000	      0.00000000	     44.68334308	    -11.61690142	     -2.80632666	     27.79972738	      0.48519677	      0.38306714	     -2.95334389	      0.00000000	      0.00000000	    -49.02733838	      9.72302401	      7.21285377	     89.55702830	     -1.96732447	     32.57095675	     39.94688877	     38.11207034	      0.00000000	      0.00000000	     88.95821279	    -19.61134408	     49.82440996	     41.99911699	     36.72366903	      0.00000000	      0.00000000
      5.03500000	    -19.53578903	     -6.22012686	     -7.02865121	      0.08438990	      0.99539096	     -0.22984122	      0.00000000	      0.50000000	      0.00000000	      0.25000000	     99.17886306	      2.21905069	      3.98852215	    116.33126827	      2.03036365	    -28.90629669	     -8.08714365	      0.00000000	      0.00000000	     43.08320251	    -12.43867786	     -4.02682667	     27.17207570	      0.47424219	      0.03526430	     -2.31235732	      0.00000000	      0.00000000	    -49.45746345	      9.28415329	      7.95865415	     89.56416839	     -1.99094520	     32.69800025	     40.30776227	     37.97741798	      0.00000000	      0.00000000	     88.92367817	    -19.61924864	     49.99556687	     41.65056299	     36.74292757	      0.00000000	      0.00000000
      5.04000000	    -19.48620657	     -6.29223358	     -7.91220643	      0.08483573	      0.99679123	     -0.22938592	      0.00000000	      0.50000000	      0.00000000	      0.25000000	    100.62316173	      2.78705745	      3.70488206	    116.57499912	      2.03461756	    -28.87813982	     -7.83507678	      0.00000000	      0.00000000	     41.80142221	    -13.14489995	     -4.91328100	     26.74022134	      0.46670491	     -0.46195828	     -1.38267816	      0.00000000	      0.00000000	    -49.73725218	      8.98864425	      8.64758485	     89.56982520	     -1.96347824	     32.82088471	     40.66153958	     37.83171577	      0.00000000	      0.00000000	     88.88125927	    -19.60977490	     50.07878586	     41.27346441	     36.75624887	      0.00000000	      0.00000000
